<svg width="440" height="956" viewBox="0 0 440 956" fill="none" xmlns="http://www.w3.org/2000/svg">
<g clip-path="url(#clip0_142_162)">
<rect width="440" height="956" fill="#EEEFE0"/>
<ellipse cx="-20.5" cy="899.5" rx="360.5" ry="303.5" fill="#A7C1A8"/>
<ellipse cx="635" cy="492" rx="436" ry="286" fill="#A7C1A8"/>
<path d="M58.1758 153.504C58.0195 151.928 57.349 150.704 56.1641 149.832C54.9792 148.96 53.3711 148.523 51.3398 148.523C49.9596 148.523 48.7943 148.719 47.8438 149.109C46.8932 149.487 46.1641 150.014 45.6563 150.691C45.1615 151.368 44.9141 152.137 44.9141 152.996C44.888 153.712 45.0378 154.337 45.3633 154.871C45.7018 155.405 46.1641 155.867 46.75 156.258C47.3359 156.635 48.013 156.967 48.7812 157.254C49.5495 157.527 50.3698 157.762 51.2422 157.957L54.8359 158.816C56.5807 159.207 58.1823 159.728 59.6406 160.379C61.099 161.03 62.362 161.831 63.4297 162.781C64.4974 163.732 65.3242 164.852 65.9102 166.141C66.5091 167.43 66.8151 168.908 66.8281 170.574C66.8151 173.022 66.1901 175.145 64.9531 176.941C63.7292 178.725 61.9583 180.112 59.6406 181.102C57.3359 182.078 54.556 182.566 51.3008 182.566C48.0716 182.566 45.2591 182.072 42.8633 181.082C40.4805 180.092 38.6185 178.628 37.2773 176.687C35.9492 174.734 35.2526 172.319 35.1875 169.441H43.3711C43.4622 170.783 43.8464 171.902 44.5234 172.801C45.2135 173.686 46.1315 174.357 47.2773 174.812C48.4362 175.255 49.7448 175.477 51.2031 175.477C52.6354 175.477 53.8789 175.268 54.9336 174.852C56.0013 174.435 56.8281 173.855 57.4141 173.113C58 172.371 58.293 171.518 58.293 170.555C58.293 169.656 58.026 168.901 57.4922 168.289C56.9714 167.677 56.2031 167.156 55.1875 166.727C54.1849 166.297 52.9544 165.906 51.4961 165.555L47.1406 164.461C43.7682 163.641 41.1055 162.358 39.1523 160.613C37.1992 158.868 36.2292 156.518 36.2422 153.562C36.2292 151.141 36.8737 149.025 38.1758 147.215C39.4909 145.405 41.2943 143.992 43.5859 142.977C45.8776 141.961 48.4818 141.453 51.3984 141.453C54.3672 141.453 56.9583 141.961 59.1719 142.977C61.3984 143.992 63.1302 145.405 64.3672 147.215C65.6042 149.025 66.2422 151.121 66.2812 153.504H58.1758ZM86.0322 182.586C82.9463 182.586 80.29 181.961 78.0635 180.711C75.8499 179.448 74.1442 177.664 72.9463 175.359C71.7484 173.042 71.1494 170.301 71.1494 167.137C71.1494 164.051 71.7484 161.342 72.9463 159.012C74.1442 156.681 75.8304 154.865 78.0049 153.562C80.1924 152.26 82.7575 151.609 85.7002 151.609C87.6794 151.609 89.5218 151.928 91.2275 152.566C92.9463 153.191 94.4437 154.135 95.7197 155.398C97.0088 156.661 98.0114 158.25 98.7275 160.164C99.4437 162.065 99.8018 164.292 99.8018 166.844V169.129H74.4697V163.973H91.9697C91.9697 162.775 91.7093 161.714 91.1885 160.789C90.6676 159.865 89.945 159.142 89.0205 158.621C88.1091 158.087 87.0479 157.82 85.8369 157.82C84.5739 157.82 83.4541 158.113 82.4775 158.699C81.514 159.272 80.7588 160.047 80.2119 161.023C79.665 161.987 79.3851 163.061 79.3721 164.246V169.148C79.3721 170.633 79.6455 171.915 80.1924 172.996C80.7523 174.077 81.54 174.91 82.5557 175.496C83.5713 176.082 84.7757 176.375 86.1689 176.375C87.0934 176.375 87.9398 176.245 88.708 175.984C89.4762 175.724 90.1338 175.333 90.6807 174.812C91.2275 174.292 91.6442 173.654 91.9307 172.898L99.626 173.406C99.2354 175.255 98.4346 176.87 97.2236 178.25C96.0257 179.617 94.4762 180.685 92.5752 181.453C90.6872 182.208 88.5062 182.586 86.0322 182.586ZM113.552 142V182H105.231V142H113.552ZM128.771 182.566C126.857 182.566 125.152 182.234 123.654 181.57C122.157 180.893 120.972 179.897 120.1 178.582C119.24 177.254 118.811 175.6 118.811 173.621C118.811 171.954 119.117 170.555 119.729 169.422C120.34 168.289 121.174 167.378 122.229 166.687C123.283 165.997 124.481 165.477 125.822 165.125C127.176 164.773 128.596 164.526 130.08 164.383C131.825 164.201 133.231 164.031 134.299 163.875C135.367 163.706 136.141 163.458 136.623 163.133C137.105 162.807 137.346 162.326 137.346 161.687V161.57C137.346 160.333 136.955 159.376 136.174 158.699C135.406 158.022 134.312 157.684 132.893 157.684C131.395 157.684 130.204 158.016 129.318 158.68C128.433 159.331 127.847 160.151 127.561 161.141L119.865 160.516C120.256 158.693 121.024 157.117 122.17 155.789C123.316 154.448 124.794 153.419 126.604 152.703C128.426 151.974 130.536 151.609 132.932 151.609C134.598 151.609 136.193 151.805 137.717 152.195C139.253 152.586 140.614 153.191 141.799 154.012C142.997 154.832 143.941 155.887 144.631 157.176C145.321 158.452 145.666 159.982 145.666 161.766V182H137.775V177.84H137.541C137.059 178.777 136.415 179.604 135.607 180.32C134.8 181.023 133.83 181.577 132.697 181.98C131.564 182.371 130.256 182.566 128.771 182.566ZM131.154 176.824C132.378 176.824 133.459 176.583 134.396 176.102C135.334 175.607 136.07 174.943 136.604 174.109C137.137 173.276 137.404 172.332 137.404 171.277V168.094C137.144 168.263 136.786 168.419 136.33 168.562C135.887 168.693 135.386 168.816 134.826 168.934C134.266 169.038 133.706 169.135 133.146 169.227C132.587 169.305 132.079 169.376 131.623 169.441C130.646 169.585 129.794 169.812 129.064 170.125C128.335 170.437 127.769 170.861 127.365 171.395C126.962 171.915 126.76 172.566 126.76 173.348C126.76 174.48 127.17 175.346 127.99 175.945C128.824 176.531 129.878 176.824 131.154 176.824ZM152.121 182V152H160.051V157.293H160.402C161.027 155.535 162.069 154.148 163.527 153.133C164.986 152.117 166.73 151.609 168.762 151.609C170.819 151.609 172.57 152.124 174.016 153.152C175.461 154.168 176.424 155.548 176.906 157.293H177.219C177.831 155.574 178.938 154.201 180.539 153.172C182.154 152.13 184.061 151.609 186.262 151.609C189.061 151.609 191.333 152.501 193.078 154.285C194.836 156.056 195.715 158.569 195.715 161.824V182H187.414V163.465C187.414 161.798 186.971 160.548 186.086 159.715C185.201 158.882 184.094 158.465 182.766 158.465C181.255 158.465 180.077 158.947 179.23 159.91C178.384 160.861 177.961 162.117 177.961 163.68V182H169.895V163.289C169.895 161.818 169.471 160.646 168.625 159.773C167.792 158.901 166.691 158.465 165.324 158.465C164.4 158.465 163.566 158.699 162.824 159.168C162.095 159.624 161.516 160.268 161.086 161.102C160.656 161.922 160.441 162.885 160.441 163.992V182H152.121ZM210.842 182.566C208.928 182.566 207.222 182.234 205.725 181.57C204.227 180.893 203.042 179.897 202.17 178.582C201.311 177.254 200.881 175.6 200.881 173.621C200.881 171.954 201.187 170.555 201.799 169.422C202.411 168.289 203.244 167.378 204.299 166.687C205.354 165.997 206.551 165.477 207.893 165.125C209.247 164.773 210.666 164.526 212.15 164.383C213.895 164.201 215.301 164.031 216.369 163.875C217.437 163.706 218.212 163.458 218.693 163.133C219.175 162.807 219.416 162.326 219.416 161.687V161.57C219.416 160.333 219.025 159.376 218.244 158.699C217.476 158.022 216.382 157.684 214.963 157.684C213.465 157.684 212.274 158.016 211.389 158.68C210.503 159.331 209.917 160.151 209.631 161.141L201.936 160.516C202.326 158.693 203.094 157.117 204.24 155.789C205.386 154.448 206.864 153.419 208.674 152.703C210.497 151.974 212.606 151.609 215.002 151.609C216.669 151.609 218.264 151.805 219.787 152.195C221.324 152.586 222.684 153.191 223.869 154.012C225.067 154.832 226.011 155.887 226.701 157.176C227.391 158.452 227.736 159.982 227.736 161.766V182H219.846V177.84H219.611C219.13 178.777 218.485 179.604 217.678 180.32C216.87 181.023 215.9 181.577 214.768 181.98C213.635 182.371 212.326 182.566 210.842 182.566ZM213.225 176.824C214.449 176.824 215.529 176.583 216.467 176.102C217.404 175.607 218.14 174.943 218.674 174.109C219.208 173.276 219.475 172.332 219.475 171.277V168.094C219.214 168.263 218.856 168.419 218.4 168.562C217.958 168.693 217.456 168.816 216.896 168.934C216.337 169.038 215.777 169.135 215.217 169.227C214.657 169.305 214.149 169.376 213.693 169.441C212.717 169.585 211.864 169.812 211.135 170.125C210.406 170.437 209.839 170.861 209.436 171.395C209.032 171.915 208.83 172.566 208.83 173.348C208.83 174.48 209.24 175.346 210.061 175.945C210.894 176.531 211.949 176.824 213.225 176.824ZM250.148 152V158.25H232.082V152H250.148ZM236.184 144.812H244.504V172.781C244.504 173.549 244.621 174.148 244.855 174.578C245.09 174.995 245.415 175.288 245.832 175.457C246.262 175.626 246.757 175.711 247.316 175.711C247.707 175.711 248.098 175.678 248.488 175.613C248.879 175.535 249.178 175.477 249.387 175.437L250.695 181.629C250.279 181.759 249.693 181.909 248.938 182.078C248.182 182.26 247.264 182.371 246.184 182.41C244.178 182.488 242.421 182.221 240.91 181.609C239.413 180.997 238.247 180.047 237.414 178.758C236.581 177.469 236.171 175.841 236.184 173.875V144.812Z" fill="black"/>
<path d="M50.6563 241H36.4766V201H50.7734C54.7969 201 58.2604 201.801 61.1641 203.402C64.0677 204.991 66.3008 207.276 67.8633 210.258C69.4388 213.24 70.2266 216.807 70.2266 220.961C70.2266 225.128 69.4388 228.708 67.8633 231.703C66.3008 234.698 64.0547 236.996 61.125 238.598C58.2083 240.199 54.7188 241 50.6563 241ZM44.9336 233.754H50.3047C52.8047 233.754 54.9076 233.311 56.6133 232.426C58.332 231.527 59.6211 230.141 60.4805 228.266C61.3529 226.378 61.7891 223.943 61.7891 220.961C61.7891 218.005 61.3529 215.59 60.4805 213.715C59.6211 211.84 58.3385 210.46 56.6328 209.574C54.9271 208.689 52.8242 208.246 50.3242 208.246H44.9336V233.754ZM84.8896 241.566C82.9756 241.566 81.2699 241.234 79.7725 240.57C78.2751 239.893 77.0902 238.897 76.2178 237.582C75.3584 236.254 74.9287 234.6 74.9287 232.621C74.9287 230.954 75.2347 229.555 75.8467 228.422C76.4587 227.289 77.292 226.378 78.3467 225.687C79.4014 224.997 80.5993 224.477 81.9404 224.125C83.2946 223.773 84.7139 223.526 86.1982 223.383C87.943 223.201 89.3493 223.031 90.417 222.875C91.4847 222.706 92.2594 222.458 92.7412 222.133C93.223 221.807 93.4639 221.326 93.4639 220.687V220.57C93.4639 219.333 93.0732 218.376 92.292 217.699C91.5238 217.022 90.43 216.684 89.0107 216.684C87.5133 216.684 86.3219 217.016 85.4365 217.68C84.5511 218.331 83.9652 219.151 83.6787 220.141L75.9834 219.516C76.374 217.693 77.1423 216.117 78.2881 214.789C79.4339 213.448 80.9118 212.419 82.7217 211.703C84.5446 210.974 86.654 210.609 89.0498 210.609C90.7165 210.609 92.3115 210.805 93.835 211.195C95.3714 211.586 96.7321 212.191 97.917 213.012C99.1149 213.832 100.059 214.887 100.749 216.176C101.439 217.452 101.784 218.982 101.784 220.766V241H93.8936V236.84H93.6592C93.1774 237.777 92.5329 238.604 91.7256 239.32C90.9183 240.023 89.9482 240.577 88.8154 240.98C87.6826 241.371 86.374 241.566 84.8896 241.566ZM87.2725 235.824C88.4964 235.824 89.5771 235.583 90.5146 235.102C91.4521 234.607 92.1878 233.943 92.7217 233.109C93.2555 232.276 93.5225 231.332 93.5225 230.277V227.094C93.262 227.263 92.904 227.419 92.4482 227.562C92.0055 227.693 91.5042 227.816 90.9443 227.934C90.3844 228.038 89.8245 228.135 89.2646 228.227C88.7048 228.305 88.1969 228.376 87.7412 228.441C86.7646 228.585 85.9118 228.812 85.1826 229.125C84.4535 229.437 83.887 229.861 83.4834 230.395C83.0798 230.915 82.8779 231.566 82.8779 232.348C82.8779 233.48 83.2881 234.346 84.1084 234.945C84.9417 235.531 85.9964 235.824 87.2725 235.824ZM124.196 211V217.25H106.13V211H124.196ZM110.231 203.812H118.552V231.781C118.552 232.549 118.669 233.148 118.903 233.578C119.138 233.995 119.463 234.288 119.88 234.457C120.31 234.626 120.804 234.711 121.364 234.711C121.755 234.711 122.146 234.678 122.536 234.613C122.927 234.535 123.226 234.477 123.435 234.437L124.743 240.629C124.326 240.759 123.741 240.909 122.985 241.078C122.23 241.26 121.312 241.371 120.231 241.41C118.226 241.488 116.468 241.221 114.958 240.609C113.461 239.997 112.295 239.047 111.462 237.758C110.629 236.469 110.218 234.841 110.231 232.875V203.812ZM138.171 241.566C136.257 241.566 134.551 241.234 133.054 240.57C131.556 239.893 130.371 238.897 129.499 237.582C128.64 236.254 128.21 234.6 128.21 232.621C128.21 230.954 128.516 229.555 129.128 228.422C129.74 227.289 130.573 226.378 131.628 225.687C132.683 224.997 133.881 224.477 135.222 224.125C136.576 223.773 137.995 223.526 139.479 223.383C141.224 223.201 142.631 223.031 143.698 222.875C144.766 222.706 145.541 222.458 146.022 222.133C146.504 221.807 146.745 221.326 146.745 220.687V220.57C146.745 219.333 146.354 218.376 145.573 217.699C144.805 217.022 143.711 216.684 142.292 216.684C140.795 216.684 139.603 217.016 138.718 217.68C137.832 218.331 137.246 219.151 136.96 220.141L129.265 219.516C129.655 217.693 130.424 216.117 131.569 214.789C132.715 213.448 134.193 212.419 136.003 211.703C137.826 210.974 139.935 210.609 142.331 210.609C143.998 210.609 145.593 210.805 147.116 211.195C148.653 211.586 150.013 212.191 151.198 213.012C152.396 213.832 153.34 214.887 154.03 216.176C154.72 217.452 155.065 218.982 155.065 220.766V241H147.175V236.84H146.94C146.459 237.777 145.814 238.604 145.007 239.32C144.2 240.023 143.229 240.577 142.097 240.98C140.964 241.371 139.655 241.566 138.171 241.566ZM140.554 235.824C141.778 235.824 142.858 235.583 143.796 235.102C144.733 234.607 145.469 233.943 146.003 233.109C146.537 232.276 146.804 231.332 146.804 230.277V227.094C146.543 227.263 146.185 227.419 145.729 227.562C145.287 227.693 144.785 227.816 144.226 227.934C143.666 228.038 143.106 228.135 142.546 228.227C141.986 228.305 141.478 228.376 141.022 228.441C140.046 228.585 139.193 228.812 138.464 229.125C137.735 229.437 137.168 229.861 136.765 230.395C136.361 230.915 136.159 231.566 136.159 232.348C136.159 233.48 136.569 234.346 137.39 234.945C138.223 235.531 139.278 235.824 140.554 235.824ZM169.841 223.656V241H161.521V211H169.45V216.293H169.802C170.466 214.548 171.579 213.168 173.142 212.152C174.704 211.124 176.599 210.609 178.825 210.609C180.909 210.609 182.725 211.065 184.274 211.977C185.824 212.888 187.028 214.19 187.888 215.883C188.747 217.562 189.177 219.568 189.177 221.898V241H180.856V223.383C180.869 221.547 180.401 220.115 179.45 219.086C178.5 218.044 177.191 217.523 175.524 217.523C174.405 217.523 173.415 217.764 172.556 218.246C171.709 218.728 171.045 219.431 170.563 220.355C170.095 221.267 169.854 222.367 169.841 223.656ZM209.25 252.875C206.555 252.875 204.243 252.504 202.316 251.762C200.402 251.033 198.879 250.036 197.746 248.773C196.613 247.51 195.878 246.091 195.539 244.516L203.234 243.48C203.469 244.079 203.84 244.639 204.348 245.16C204.855 245.681 205.526 246.098 206.359 246.41C207.206 246.736 208.234 246.898 209.445 246.898C211.255 246.898 212.746 246.456 213.918 245.57C215.103 244.698 215.695 243.233 215.695 241.176V235.687H215.344C214.979 236.521 214.432 237.309 213.703 238.051C212.974 238.793 212.036 239.398 210.891 239.867C209.745 240.336 208.378 240.57 206.789 240.57C204.536 240.57 202.486 240.049 200.637 239.008C198.801 237.953 197.336 236.345 196.242 234.184C195.161 232.009 194.621 229.262 194.621 225.941C194.621 222.543 195.174 219.704 196.281 217.426C197.388 215.147 198.859 213.441 200.695 212.309C202.544 211.176 204.569 210.609 206.77 210.609C208.449 210.609 209.855 210.896 210.988 211.469C212.121 212.029 213.033 212.732 213.723 213.578C214.426 214.411 214.966 215.232 215.344 216.039H215.656V211H223.918V241.293C223.918 243.845 223.293 245.98 222.043 247.699C220.793 249.418 219.061 250.707 216.848 251.566C214.647 252.439 212.115 252.875 209.25 252.875ZM209.426 234.32C210.767 234.32 211.9 233.988 212.824 233.324C213.762 232.647 214.478 231.684 214.973 230.434C215.48 229.171 215.734 227.66 215.734 225.902C215.734 224.145 215.487 222.621 214.992 221.332C214.497 220.03 213.781 219.021 212.844 218.305C211.906 217.589 210.767 217.23 209.426 217.23C208.059 217.23 206.906 217.602 205.969 218.344C205.031 219.073 204.322 220.089 203.84 221.391C203.358 222.693 203.117 224.197 203.117 225.902C203.117 227.634 203.358 229.132 203.84 230.395C204.335 231.645 205.044 232.615 205.969 233.305C206.906 233.982 208.059 234.32 209.426 234.32ZM240.48 201L239.719 229.008H232.57L231.789 201H240.48ZM236.145 241.508C234.855 241.508 233.749 241.052 232.824 240.141C231.9 239.216 231.444 238.109 231.457 236.82C231.444 235.544 231.9 234.451 232.824 233.539C233.749 232.628 234.855 232.172 236.145 232.172C237.382 232.172 238.469 232.628 239.406 233.539C240.344 234.451 240.819 235.544 240.832 236.82C240.819 237.68 240.591 238.467 240.148 239.184C239.719 239.887 239.152 240.453 238.449 240.883C237.746 241.299 236.978 241.508 236.145 241.508Z" fill="black"/>
<path d="M45.7159 277.091C45.6307 276.371 45.285 275.812 44.679 275.415C44.0729 275.017 43.3295 274.818 42.4489 274.818C41.8049 274.818 41.2415 274.922 40.7585 275.131C40.2803 275.339 39.9063 275.625 39.6364 275.99C39.3712 276.355 39.2386 276.769 39.2386 277.233C39.2386 277.621 39.331 277.955 39.5156 278.234C39.705 278.509 39.9465 278.739 40.2401 278.923C40.5336 279.103 40.8414 279.252 41.1634 279.371C41.4853 279.484 41.7812 279.577 42.0511 279.648L43.5284 280.045C43.9072 280.145 44.3286 280.282 44.7926 280.457C45.2614 280.633 45.7088 280.872 46.1349 281.175C46.5658 281.473 46.9209 281.857 47.2003 282.325C47.4796 282.794 47.6193 283.369 47.6193 284.051C47.6193 284.837 47.4134 285.547 47.0014 286.182C46.5942 286.816 45.9976 287.321 45.2116 287.695C44.4304 288.069 43.4811 288.256 42.3636 288.256C41.322 288.256 40.42 288.088 39.6577 287.751C38.9001 287.415 38.3035 286.946 37.8679 286.345C37.437 285.744 37.1932 285.045 37.1364 284.25H38.9545C39.0019 284.799 39.1866 285.254 39.5085 285.614C39.8352 285.969 40.2472 286.234 40.7443 286.409C41.2462 286.58 41.786 286.665 42.3636 286.665C43.036 286.665 43.6397 286.556 44.1747 286.338C44.7098 286.116 45.1335 285.808 45.446 285.415C45.7585 285.017 45.9148 284.553 45.9148 284.023C45.9148 283.54 45.7798 283.147 45.5099 282.844C45.2401 282.541 44.8849 282.295 44.4446 282.105C44.0043 281.916 43.5284 281.75 43.017 281.608L41.2273 281.097C40.0909 280.77 39.1913 280.304 38.5284 279.697C37.8655 279.091 37.5341 278.298 37.5341 277.318C37.5341 276.504 37.7543 275.794 38.1946 275.188C38.6397 274.577 39.2363 274.103 39.9844 273.767C40.7372 273.426 41.5777 273.256 42.5057 273.256C43.4432 273.256 44.2765 273.424 45.0057 273.76C45.7348 274.091 46.3125 274.546 46.7386 275.124C47.1695 275.701 47.3968 276.357 47.4205 277.091H45.7159ZM50.288 288V277.091H51.9641V288H50.288ZM51.1403 275.273C50.8136 275.273 50.5318 275.161 50.2951 274.939C50.0631 274.716 49.9471 274.449 49.9471 274.136C49.9471 273.824 50.0631 273.556 50.2951 273.334C50.5318 273.111 50.8136 273 51.1403 273C51.467 273 51.7463 273.111 51.9783 273.334C52.2151 273.556 52.3335 273.824 52.3335 274.136C52.3335 274.449 52.2151 274.716 51.9783 274.939C51.7463 275.161 51.467 275.273 51.1403 275.273ZM56.7102 273.455V288H55.0341V273.455H56.7102ZM62.9904 288.256C62.2991 288.256 61.6718 288.125 61.1083 287.865C60.5449 287.6 60.0974 287.219 59.766 286.722C59.4345 286.22 59.2688 285.614 59.2688 284.903C59.2688 284.278 59.3919 283.772 59.6381 283.384C59.8844 282.991 60.2134 282.683 60.6254 282.46C61.0373 282.238 61.4918 282.072 61.989 281.963C62.4909 281.849 62.9951 281.759 63.5018 281.693C64.1647 281.608 64.7021 281.544 65.114 281.501C65.5307 281.454 65.8337 281.376 66.0231 281.267C66.2172 281.158 66.3143 280.969 66.3143 280.699V280.642C66.3143 279.941 66.1225 279.397 65.739 279.009C65.3602 278.62 64.7849 278.426 64.0131 278.426C63.2129 278.426 62.5856 278.601 62.131 278.952C61.6765 279.302 61.3569 279.676 61.1722 280.074L59.5813 279.506C59.8654 278.843 60.2442 278.327 60.7177 277.957C61.1959 277.583 61.7167 277.323 62.2802 277.176C62.8484 277.025 63.4071 276.949 63.9563 276.949C64.3067 276.949 64.7092 276.991 65.1637 277.077C65.623 277.157 66.0657 277.325 66.4918 277.581C66.9227 277.837 67.2802 278.223 67.5643 278.739C67.8484 279.255 67.9904 279.946 67.9904 280.812V288H66.3143V286.523H66.229C66.1154 286.759 65.926 287.013 65.6609 287.283C65.3957 287.553 65.043 287.782 64.6026 287.972C64.1623 288.161 63.6249 288.256 62.9904 288.256ZM63.2461 286.75C63.909 286.75 64.4677 286.62 64.9222 286.359C65.3815 286.099 65.7272 285.763 65.9592 285.351C66.1959 284.939 66.3143 284.506 66.3143 284.051V282.517C66.2433 282.602 66.087 282.68 65.8455 282.751C65.6088 282.818 65.3342 282.877 65.0217 282.929C64.7139 282.976 64.4132 283.019 64.1197 283.057C63.8308 283.09 63.5965 283.118 63.4165 283.142C62.9809 283.199 62.5737 283.291 62.195 283.419C61.8209 283.542 61.5179 283.729 61.2859 283.98C61.0586 284.226 60.945 284.562 60.945 284.989C60.945 285.571 61.1604 286.011 61.5913 286.31C62.0269 286.603 62.5785 286.75 63.2461 286.75ZM72.7259 281.438V288H71.0497V273.455H72.7259V278.795H72.8679C73.1236 278.232 73.5071 277.785 74.0185 277.453C74.5346 277.117 75.2211 276.949 76.0781 276.949C76.8215 276.949 77.4725 277.098 78.0312 277.396C78.59 277.69 79.0232 278.142 79.331 278.753C79.6435 279.359 79.7997 280.131 79.7997 281.068V288H78.1236V281.182C78.1236 280.315 77.8987 279.645 77.4489 279.172C77.0038 278.694 76.3859 278.455 75.5952 278.455C75.0459 278.455 74.5535 278.571 74.1179 278.803C73.687 279.035 73.3461 279.373 73.0952 279.818C72.849 280.263 72.7259 280.803 72.7259 281.438ZM84.4286 284.023L84.4002 281.949H84.7411L89.5138 277.091H91.5877L86.5025 282.233H86.3604L84.4286 284.023ZM82.8661 288V273.455H84.5423V288H82.8661ZM89.7979 288L85.5366 282.602L86.7298 281.438L91.9286 288H89.7979ZM96.9553 288.256C96.264 288.256 95.6366 288.125 95.0732 287.865C94.5097 287.6 94.0623 287.219 93.7308 286.722C93.3994 286.22 93.2337 285.614 93.2337 284.903C93.2337 284.278 93.3568 283.772 93.603 283.384C93.8492 282.991 94.1783 282.683 94.5902 282.46C95.0021 282.238 95.4567 282.072 95.9538 281.963C96.4557 281.849 96.96 281.759 97.4666 281.693C98.1295 281.608 98.6669 281.544 99.0788 281.501C99.4955 281.454 99.7985 281.376 99.9879 281.267C100.182 281.158 100.279 280.969 100.279 280.699V280.642C100.279 279.941 100.087 279.397 99.7038 279.009C99.325 278.62 98.7498 278.426 97.978 278.426C97.1778 278.426 96.5504 278.601 96.0959 278.952C95.6413 279.302 95.3217 279.676 95.1371 280.074L93.5462 279.506C93.8303 278.843 94.209 278.327 94.6825 277.957C95.1607 277.583 95.6816 277.323 96.245 277.176C96.8132 277.025 97.3719 276.949 97.9212 276.949C98.2715 276.949 98.674 276.991 99.1286 277.077C99.5878 277.157 100.031 277.325 100.457 277.581C100.888 277.837 101.245 278.223 101.529 278.739C101.813 279.255 101.955 279.946 101.955 280.812V288H100.279V286.523H100.194C100.08 286.759 99.8909 287.013 99.6257 287.283C99.3606 287.553 99.0078 287.782 98.5675 287.972C98.1271 288.161 97.5897 288.256 96.9553 288.256ZM97.2109 286.75C97.8738 286.75 98.4325 286.62 98.8871 286.359C99.3464 286.099 99.692 285.763 99.924 285.351C100.161 284.939 100.279 284.506 100.279 284.051V282.517C100.208 282.602 100.052 282.68 99.8104 282.751C99.5736 282.818 99.299 282.877 98.9865 282.929C98.6787 282.976 98.3781 283.019 98.0845 283.057C97.7957 283.09 97.5613 283.118 97.3814 283.142C96.9458 283.199 96.5386 283.291 96.1598 283.419C95.7857 283.542 95.4827 283.729 95.2507 283.98C95.0234 284.226 94.9098 284.562 94.9098 284.989C94.9098 285.571 95.1252 286.011 95.5561 286.31C95.9917 286.603 96.5433 286.75 97.2109 286.75ZM106.691 281.438V288H105.015V277.091H106.634V278.795H106.776C107.032 278.241 107.42 277.796 107.941 277.46C108.462 277.119 109.134 276.949 109.958 276.949C110.696 276.949 111.343 277.1 111.897 277.403C112.451 277.702 112.882 278.156 113.189 278.767C113.497 279.373 113.651 280.14 113.651 281.068V288H111.975V281.182C111.975 280.325 111.752 279.657 111.307 279.179C110.862 278.696 110.251 278.455 109.475 278.455C108.94 278.455 108.462 278.571 108.04 278.803C107.623 279.035 107.294 279.373 107.053 279.818C106.811 280.263 106.691 280.803 106.691 281.438ZM122.339 288V277.091H123.958V278.795H124.1C124.327 278.213 124.694 277.761 125.201 277.439C125.708 277.112 126.316 276.949 127.026 276.949C127.746 276.949 128.345 277.112 128.823 277.439C129.306 277.761 129.683 278.213 129.952 278.795H130.066C130.345 278.232 130.764 277.785 131.323 277.453C131.882 277.117 132.552 276.949 133.333 276.949C134.308 276.949 135.106 277.254 135.727 277.865C136.347 278.471 136.657 279.416 136.657 280.699V288H134.981V280.699C134.981 279.894 134.761 279.319 134.32 278.973C133.88 278.627 133.362 278.455 132.765 278.455C131.998 278.455 131.404 278.687 130.982 279.151C130.561 279.61 130.35 280.192 130.35 280.898V288H128.646V280.528C128.646 279.908 128.444 279.409 128.042 279.03C127.639 278.646 127.121 278.455 126.487 278.455C126.051 278.455 125.644 278.571 125.265 278.803C124.891 279.035 124.588 279.357 124.356 279.768C124.129 280.176 124.015 280.647 124.015 281.182V288H122.339ZM142.932 288.256C142.241 288.256 141.613 288.125 141.05 287.865C140.486 287.6 140.039 287.219 139.707 286.722C139.376 286.22 139.21 285.614 139.21 284.903C139.21 284.278 139.333 283.772 139.58 283.384C139.826 282.991 140.155 282.683 140.567 282.46C140.979 282.238 141.433 282.072 141.93 281.963C142.432 281.849 142.937 281.759 143.443 281.693C144.106 281.608 144.643 281.544 145.055 281.501C145.472 281.454 145.775 281.376 145.964 281.267C146.159 281.158 146.256 280.969 146.256 280.699V280.642C146.256 279.941 146.064 279.397 145.68 279.009C145.302 278.62 144.726 278.426 143.955 278.426C143.154 278.426 142.527 278.601 142.072 278.952C141.618 279.302 141.298 279.676 141.114 280.074L139.523 279.506C139.807 278.843 140.186 278.327 140.659 277.957C141.137 277.583 141.658 277.323 142.222 277.176C142.79 277.025 143.348 276.949 143.898 276.949C144.248 276.949 144.651 276.991 145.105 277.077C145.564 277.157 146.007 277.325 146.433 277.581C146.864 277.837 147.222 278.223 147.506 278.739C147.79 279.255 147.932 279.946 147.932 280.812V288H146.256V286.523H146.17C146.057 286.759 145.867 287.013 145.602 287.283C145.337 287.553 144.984 287.782 144.544 287.972C144.104 288.161 143.566 288.256 142.932 288.256ZM143.188 286.75C143.85 286.75 144.409 286.62 144.864 286.359C145.323 286.099 145.669 285.763 145.901 285.351C146.137 284.939 146.256 284.506 146.256 284.051V282.517C146.185 282.602 146.028 282.68 145.787 282.751C145.55 282.818 145.276 282.877 144.963 282.929C144.655 282.976 144.355 283.019 144.061 283.057C143.772 283.09 143.538 283.118 143.358 283.142C142.922 283.199 142.515 283.291 142.136 283.419C141.762 283.542 141.459 283.729 141.227 283.98C141 284.226 140.886 284.562 140.886 284.989C140.886 285.571 141.102 286.011 141.533 286.31C141.968 286.603 142.52 286.75 143.188 286.75ZM158.718 279.534L157.213 279.96C157.118 279.709 156.978 279.465 156.794 279.229C156.614 278.987 156.368 278.788 156.055 278.632C155.743 278.476 155.342 278.398 154.855 278.398C154.187 278.398 153.631 278.552 153.186 278.859C152.745 279.162 152.525 279.548 152.525 280.017C152.525 280.434 152.677 280.763 152.98 281.004C153.283 281.246 153.756 281.447 154.4 281.608L156.02 282.006C156.995 282.242 157.722 282.605 158.2 283.092C158.678 283.575 158.917 284.198 158.917 284.96C158.917 285.585 158.737 286.144 158.377 286.636C158.022 287.129 157.525 287.517 156.886 287.801C156.247 288.085 155.503 288.227 154.656 288.227C153.543 288.227 152.622 287.986 151.893 287.503C151.164 287.02 150.702 286.314 150.508 285.386L152.099 284.989C152.251 285.576 152.537 286.016 152.958 286.31C153.385 286.603 153.941 286.75 154.627 286.75C155.409 286.75 156.029 286.584 156.488 286.253C156.952 285.917 157.184 285.514 157.184 285.045C157.184 284.667 157.052 284.349 156.787 284.094C156.521 283.833 156.114 283.639 155.565 283.511L153.747 283.085C152.748 282.848 152.014 282.482 151.545 281.984C151.081 281.482 150.849 280.855 150.849 280.102C150.849 279.487 151.022 278.942 151.368 278.469C151.718 277.995 152.194 277.624 152.795 277.354C153.401 277.084 154.088 276.949 154.855 276.949C155.934 276.949 156.782 277.186 157.397 277.659C158.018 278.133 158.458 278.758 158.718 279.534ZM168.315 283.54V277.091H169.991V288H168.315V286.153H168.202C167.946 286.707 167.548 287.179 167.009 287.567C166.469 287.95 165.787 288.142 164.963 288.142C164.281 288.142 163.675 287.993 163.145 287.695C162.615 287.392 162.198 286.937 161.895 286.331C161.592 285.72 161.44 284.951 161.44 284.023V277.091H163.116V283.909C163.116 284.705 163.339 285.339 163.784 285.812C164.234 286.286 164.807 286.523 165.503 286.523C165.92 286.523 166.343 286.416 166.774 286.203C167.21 285.99 167.574 285.663 167.868 285.223C168.166 284.783 168.315 284.222 168.315 283.54ZM174.624 284.023L174.596 281.949H174.936L179.709 277.091H181.783L176.698 282.233H176.556L174.624 284.023ZM173.061 288V273.455H174.738V288H173.061ZM179.993 288L175.732 282.602L176.925 281.438L182.124 288H179.993ZM196.44 283.54V277.091H198.116V288H196.44V286.153H196.327C196.071 286.707 195.673 287.179 195.134 287.567C194.594 287.95 193.912 288.142 193.088 288.142C192.406 288.142 191.8 287.993 191.27 287.695C190.74 287.392 190.323 286.937 190.02 286.331C189.717 285.72 189.565 284.951 189.565 284.023V277.091H191.241V283.909C191.241 284.705 191.464 285.339 191.909 285.812C192.359 286.286 192.932 286.523 193.628 286.523C194.045 286.523 194.468 286.416 194.899 286.203C195.335 285.99 195.699 285.663 195.993 285.223C196.291 284.783 196.44 284.222 196.44 283.54ZM202.863 281.438V288H201.186V277.091H202.806V278.795H202.948C203.203 278.241 203.592 277.796 204.113 277.46C204.633 277.119 205.306 276.949 206.13 276.949C206.868 276.949 207.515 277.1 208.069 277.403C208.623 277.702 209.053 278.156 209.361 278.767C209.669 279.373 209.823 280.14 209.823 281.068V288H208.147V281.182C208.147 280.325 207.924 279.657 207.479 279.179C207.034 278.696 206.423 278.455 205.647 278.455C205.112 278.455 204.633 278.571 204.212 278.803C203.795 279.035 203.466 279.373 203.225 279.818C202.983 280.263 202.863 280.803 202.863 281.438ZM217.63 277.091V278.511H211.977V277.091H217.63ZM213.624 274.477H215.3V284.875C215.3 285.348 215.369 285.704 215.506 285.94C215.648 286.172 215.828 286.329 216.046 286.409C216.269 286.485 216.503 286.523 216.749 286.523C216.934 286.523 217.085 286.513 217.204 286.494C217.322 286.471 217.417 286.452 217.488 286.438L217.829 287.943C217.715 287.986 217.557 288.028 217.353 288.071C217.149 288.118 216.891 288.142 216.579 288.142C216.105 288.142 215.641 288.04 215.187 287.837C214.737 287.633 214.363 287.323 214.065 286.906C213.771 286.49 213.624 285.964 213.624 285.33V274.477ZM227.026 283.54V277.091H228.702V288H227.026V286.153H226.913C226.657 286.707 226.259 287.179 225.719 287.567C225.18 287.95 224.498 288.142 223.674 288.142C222.992 288.142 222.386 287.993 221.856 287.695C221.326 287.392 220.909 286.937 220.606 286.331C220.303 285.72 220.151 284.951 220.151 284.023V277.091H221.827V283.909C221.827 284.705 222.05 285.339 222.495 285.812C222.945 286.286 223.518 286.523 224.214 286.523C224.63 286.523 225.054 286.416 225.485 286.203C225.921 285.99 226.285 285.663 226.579 285.223C226.877 284.783 227.026 284.222 227.026 283.54ZM233.335 284.023L233.306 281.949H233.647L238.42 277.091H240.494L235.409 282.233H235.267L233.335 284.023ZM231.772 288V273.455H233.449V288H231.772ZM238.704 288L234.443 282.602L235.636 281.438L240.835 288H238.704ZM37.5341 312V301.091H39.1534V302.795H39.2955C39.5227 302.213 39.8897 301.761 40.3963 301.439C40.9029 301.112 41.5114 300.949 42.2216 300.949C42.9413 300.949 43.5402 301.112 44.0185 301.439C44.5014 301.761 44.8778 302.213 45.1477 302.795H45.2614C45.5407 302.232 45.9598 301.785 46.5185 301.453C47.0772 301.117 47.7472 300.949 48.5284 300.949C49.5038 300.949 50.3016 301.254 50.9219 301.865C51.5421 302.471 51.8523 303.416 51.8523 304.699V312H50.1761V304.699C50.1761 303.894 49.956 303.319 49.5156 302.973C49.0753 302.627 48.5568 302.455 47.9602 302.455C47.1932 302.455 46.599 302.687 46.1776 303.151C45.7562 303.61 45.5455 304.192 45.5455 304.898V312H43.8409V304.528C43.8409 303.908 43.6397 303.409 43.2372 303.03C42.8348 302.646 42.3163 302.455 41.6818 302.455C41.2462 302.455 40.839 302.571 40.4602 302.803C40.0862 303.035 39.7831 303.357 39.5511 303.768C39.3239 304.176 39.2102 304.647 39.2102 305.182V312H37.5341ZM59.4908 312.227C58.4396 312.227 57.5329 311.995 56.7706 311.531C56.013 311.062 55.4283 310.409 55.0163 309.571C54.6091 308.728 54.4055 307.748 54.4055 306.631C54.4055 305.513 54.6091 304.528 55.0163 303.676C55.4283 302.819 56.0012 302.152 56.7351 301.673C57.4737 301.19 58.3355 300.949 59.3203 300.949C59.8885 300.949 60.4496 301.044 61.0036 301.233C61.5575 301.422 62.0618 301.73 62.5163 302.156C62.9709 302.578 63.3331 303.136 63.603 303.832C63.8729 304.528 64.0078 305.385 64.0078 306.403V307.114H55.5987V305.665H62.3033C62.3033 305.049 62.1802 304.5 61.9339 304.017C61.6925 303.534 61.3468 303.153 60.897 302.874C60.4519 302.594 59.9264 302.455 59.3203 302.455C58.6527 302.455 58.075 302.62 57.5874 302.952C57.1044 303.278 56.7327 303.705 56.4723 304.23C56.2119 304.756 56.0817 305.319 56.0817 305.92V306.886C56.0817 307.71 56.2237 308.409 56.5078 308.982C56.7966 309.55 57.1967 309.983 57.7081 310.281C58.2195 310.575 58.8137 310.722 59.4908 310.722C59.9311 310.722 60.3288 310.66 60.6839 310.537C61.0438 310.409 61.3539 310.22 61.6143 309.969C61.8748 309.713 62.076 309.396 62.218 309.017L63.8374 309.472C63.6669 310.021 63.3804 310.504 62.978 310.92C62.5755 311.332 62.0784 311.654 61.4865 311.886C60.8946 312.114 60.2294 312.227 59.4908 312.227ZM68.2337 305.438V312H66.5575V301.091H68.1768V302.795H68.3189C68.5746 302.241 68.9628 301.796 69.4837 301.46C70.0045 301.119 70.6768 300.949 71.5007 300.949C72.2393 300.949 72.8857 301.1 73.4396 301.403C73.9936 301.702 74.4245 302.156 74.7322 302.767C75.04 303.373 75.1939 304.14 75.1939 305.068V312H73.5178V305.182C73.5178 304.325 73.2952 303.657 72.8501 303.179C72.4051 302.696 71.7943 302.455 71.0178 302.455C70.4827 302.455 70.0045 302.571 69.5831 302.803C69.1664 303.035 68.8374 303.373 68.5959 303.818C68.3544 304.263 68.2337 304.803 68.2337 305.438ZM82.6602 316.318C81.8505 316.318 81.1545 316.214 80.5721 316.006C79.9897 315.802 79.5044 315.532 79.1161 315.196C78.7326 314.865 78.4272 314.509 78.1999 314.131L79.5352 313.193C79.6867 313.392 79.8784 313.619 80.1104 313.875C80.3424 314.135 80.6597 314.36 81.0621 314.55C81.4693 314.744 82.002 314.841 82.6602 314.841C83.5408 314.841 84.2676 314.628 84.8406 314.202C85.4135 313.776 85.6999 313.108 85.6999 312.199V309.983H85.5579C85.4348 310.182 85.2596 310.428 85.0323 310.722C84.8098 311.01 84.4878 311.268 84.0664 311.496C83.6497 311.718 83.0863 311.83 82.3761 311.83C81.4954 311.83 80.7047 311.621 80.0039 311.205C79.3079 310.788 78.7563 310.182 78.3491 309.386C77.9466 308.591 77.7454 307.625 77.7454 306.489C77.7454 305.371 77.9419 304.398 78.3349 303.57C78.7279 302.736 79.2747 302.092 79.9755 301.638C80.6763 301.179 81.4859 300.949 82.4045 300.949C83.1147 300.949 83.6781 301.067 84.0948 301.304C84.5162 301.536 84.8382 301.801 85.0607 302.099C85.288 302.393 85.4632 302.634 85.5863 302.824H85.7567V301.091H87.3761V312.312C87.3761 313.25 87.163 314.012 86.7369 314.599C86.3155 315.191 85.7473 315.625 85.0323 315.899C84.3221 316.179 83.5314 316.318 82.6602 316.318ZM82.6033 310.324C83.2757 310.324 83.8439 310.17 84.3079 309.862C84.7719 309.554 85.1246 309.112 85.3661 308.534C85.6076 307.956 85.7283 307.265 85.7283 306.46C85.7283 305.674 85.61 304.981 85.3732 304.379C85.1365 303.778 84.7861 303.307 84.3221 302.966C83.8581 302.625 83.2852 302.455 82.6033 302.455C81.8931 302.455 81.3013 302.634 80.8278 302.994C80.359 303.354 80.0063 303.837 79.7695 304.443C79.5375 305.049 79.4215 305.722 79.4215 306.46C79.4215 307.218 79.5399 307.888 79.7766 308.47C80.0181 309.048 80.3732 309.502 80.842 309.834C81.3155 310.161 81.9026 310.324 82.6033 310.324ZM93.6545 312.256C92.9632 312.256 92.3358 312.125 91.7724 311.865C91.2089 311.6 90.7615 311.219 90.43 310.722C90.0986 310.22 89.9329 309.614 89.9329 308.903C89.9329 308.278 90.056 307.772 90.3022 307.384C90.5484 306.991 90.8775 306.683 91.2894 306.46C91.7013 306.238 92.1559 306.072 92.6531 305.963C93.1549 305.849 93.6592 305.759 94.1658 305.693C94.8287 305.608 95.3661 305.544 95.7781 305.501C96.1947 305.454 96.4978 305.376 96.6871 305.267C96.8813 305.158 96.9783 304.969 96.9783 304.699V304.642C96.9783 303.941 96.7866 303.397 96.4031 303.009C96.0243 302.62 95.449 302.426 94.6772 302.426C93.877 302.426 93.2496 302.601 92.7951 302.952C92.3406 303.302 92.021 303.676 91.8363 304.074L90.2454 303.506C90.5295 302.843 90.9083 302.327 91.3817 301.957C91.86 301.583 92.3808 301.323 92.9442 301.176C93.5124 301.025 94.0711 300.949 94.6204 300.949C94.9708 300.949 95.3732 300.991 95.8278 301.077C96.2871 301.157 96.7298 301.325 97.1559 301.581C97.5868 301.837 97.9442 302.223 98.2283 302.739C98.5124 303.255 98.6545 303.946 98.6545 304.812V312H96.9783V310.523H96.8931C96.7795 310.759 96.5901 311.013 96.3249 311.283C96.0598 311.553 95.707 311.782 95.2667 311.972C94.8263 312.161 94.2889 312.256 93.6545 312.256ZM93.9102 310.75C94.573 310.75 95.1317 310.62 95.5863 310.359C96.0456 310.099 96.3912 309.763 96.6232 309.351C96.86 308.939 96.9783 308.506 96.9783 308.051V306.517C96.9073 306.602 96.7511 306.68 96.5096 306.751C96.2728 306.818 95.9982 306.877 95.6857 306.929C95.378 306.976 95.0773 307.019 94.7837 307.057C94.4949 307.09 94.2605 307.118 94.0806 307.142C93.645 307.199 93.2378 307.291 92.859 307.419C92.485 307.542 92.1819 307.729 91.9499 307.98C91.7227 308.226 91.609 308.562 91.609 308.989C91.609 309.571 91.8245 310.011 92.2553 310.31C92.6909 310.603 93.2425 310.75 93.9102 310.75ZM103.276 308.023L103.248 305.949H103.589L108.362 301.091H110.435L105.35 306.233H105.208L103.276 308.023ZM101.714 312V297.455H103.39V312H101.714ZM108.646 312L104.384 306.602L105.577 305.438L110.776 312H108.646ZM120.32 303.534L118.814 303.96C118.72 303.709 118.58 303.465 118.395 303.229C118.215 302.987 117.969 302.788 117.657 302.632C117.344 302.476 116.944 302.398 116.456 302.398C115.789 302.398 115.232 302.552 114.787 302.859C114.347 303.162 114.127 303.548 114.127 304.017C114.127 304.434 114.278 304.763 114.581 305.004C114.884 305.246 115.358 305.447 116.002 305.608L117.621 306.006C118.596 306.242 119.323 306.605 119.801 307.092C120.28 307.575 120.519 308.198 120.519 308.96C120.519 309.585 120.339 310.144 119.979 310.636C119.624 311.129 119.127 311.517 118.488 311.801C117.848 312.085 117.105 312.227 116.257 312.227C115.145 312.227 114.224 311.986 113.495 311.503C112.766 311.02 112.304 310.314 112.11 309.386L113.701 308.989C113.852 309.576 114.139 310.016 114.56 310.31C114.986 310.603 115.542 310.75 116.229 310.75C117.01 310.75 117.631 310.584 118.09 310.253C118.554 309.917 118.786 309.514 118.786 309.045C118.786 308.667 118.653 308.349 118.388 308.094C118.123 307.833 117.716 307.639 117.167 307.511L115.348 307.085C114.349 306.848 113.615 306.482 113.147 305.984C112.683 305.482 112.451 304.855 112.451 304.102C112.451 303.487 112.623 302.942 112.969 302.469C113.319 301.995 113.795 301.624 114.397 301.354C115.003 301.084 115.689 300.949 116.456 300.949C117.536 300.949 118.383 301.186 118.999 301.659C119.619 302.133 120.06 302.758 120.32 303.534ZM127.616 312.227C126.565 312.227 125.658 311.995 124.896 311.531C124.138 311.062 123.553 310.409 123.141 309.571C122.734 308.728 122.531 307.748 122.531 306.631C122.531 305.513 122.734 304.528 123.141 303.676C123.553 302.819 124.126 302.152 124.86 301.673C125.599 301.19 126.46 300.949 127.445 300.949C128.013 300.949 128.575 301.044 129.129 301.233C129.683 301.422 130.187 301.73 130.641 302.156C131.096 302.578 131.458 303.136 131.728 303.832C131.998 304.528 132.133 305.385 132.133 306.403V307.114H123.724V305.665H130.428C130.428 305.049 130.305 304.5 130.059 304.017C129.817 303.534 129.472 303.153 129.022 302.874C128.577 302.594 128.051 302.455 127.445 302.455C126.778 302.455 126.2 302.62 125.712 302.952C125.229 303.278 124.858 303.705 124.597 304.23C124.337 304.756 124.207 305.319 124.207 305.92V306.886C124.207 307.71 124.349 308.409 124.633 308.982C124.922 309.55 125.322 309.983 125.833 310.281C126.344 310.575 126.939 310.722 127.616 310.722C128.056 310.722 128.454 310.66 128.809 310.537C129.169 310.409 129.479 310.22 129.739 309.969C130 309.713 130.201 309.396 130.343 309.017L131.962 309.472C131.792 310.021 131.505 310.504 131.103 310.92C130.701 311.332 130.203 311.654 129.612 311.886C129.02 312.114 128.354 312.227 127.616 312.227ZM142.41 303.534L140.904 303.96C140.809 303.709 140.67 303.465 140.485 303.229C140.305 302.987 140.059 302.788 139.746 302.632C139.434 302.476 139.034 302.398 138.546 302.398C137.879 302.398 137.322 302.552 136.877 302.859C136.437 303.162 136.217 303.548 136.217 304.017C136.217 304.434 136.368 304.763 136.671 305.004C136.974 305.246 137.448 305.447 138.092 305.608L139.711 306.006C140.686 306.242 141.413 306.605 141.891 307.092C142.37 307.575 142.609 308.198 142.609 308.96C142.609 309.585 142.429 310.144 142.069 310.636C141.714 311.129 141.217 311.517 140.577 311.801C139.938 312.085 139.195 312.227 138.347 312.227C137.235 312.227 136.314 311.986 135.585 311.503C134.855 311.02 134.394 310.314 134.2 309.386L135.79 308.989C135.942 309.576 136.228 310.016 136.65 310.31C137.076 310.603 137.632 310.75 138.319 310.75C139.1 310.75 139.72 310.584 140.18 310.253C140.644 309.917 140.876 309.514 140.876 309.045C140.876 308.667 140.743 308.349 140.478 308.094C140.213 307.833 139.806 307.639 139.256 307.511L137.438 307.085C136.439 306.848 135.705 306.482 135.237 305.984C134.772 305.482 134.54 304.855 134.54 304.102C134.54 303.487 134.713 302.942 135.059 302.469C135.409 301.995 135.885 301.624 136.487 301.354C137.093 301.084 137.779 300.949 138.546 300.949C139.626 300.949 140.473 301.186 141.089 301.659C141.709 302.133 142.149 302.758 142.41 303.534ZM150.757 316.091V301.091H152.376V302.824H152.575C152.698 302.634 152.868 302.393 153.086 302.099C153.309 301.801 153.626 301.536 154.038 301.304C154.455 301.067 155.018 300.949 155.728 300.949C156.647 300.949 157.457 301.179 158.157 301.638C158.858 302.097 159.405 302.748 159.798 303.591C160.191 304.434 160.387 305.428 160.387 306.574C160.387 307.729 160.191 308.731 159.798 309.578C159.405 310.421 158.86 311.074 158.164 311.538C157.468 311.998 156.666 312.227 155.757 312.227C155.056 312.227 154.495 312.111 154.074 311.879C153.652 311.643 153.328 311.375 153.1 311.077C152.873 310.774 152.698 310.523 152.575 310.324H152.433V316.091H150.757ZM152.404 306.545C152.404 307.369 152.525 308.096 152.767 308.726C153.008 309.351 153.361 309.841 153.825 310.196C154.289 310.546 154.857 310.722 155.529 310.722C156.23 310.722 156.815 310.537 157.284 310.168C157.757 309.794 158.112 309.292 158.349 308.662C158.591 308.027 158.711 307.322 158.711 306.545C158.711 305.778 158.593 305.087 158.356 304.472C158.124 303.851 157.771 303.361 157.298 303.001C156.829 302.637 156.24 302.455 155.529 302.455C154.848 302.455 154.275 302.627 153.811 302.973C153.347 303.314 152.996 303.792 152.76 304.408C152.523 305.018 152.404 305.731 152.404 306.545ZM167.518 312.227C166.467 312.227 165.56 311.995 164.798 311.531C164.04 311.062 163.456 310.409 163.044 309.571C162.636 308.728 162.433 307.748 162.433 306.631C162.433 305.513 162.636 304.528 163.044 303.676C163.456 302.819 164.029 302.152 164.762 301.673C165.501 301.19 166.363 300.949 167.348 300.949C167.916 300.949 168.477 301.044 169.031 301.233C169.585 301.422 170.089 301.73 170.544 302.156C170.998 302.578 171.36 303.136 171.63 303.832C171.9 304.528 172.035 305.385 172.035 306.403V307.114H163.626V305.665H170.331C170.331 305.049 170.208 304.5 169.961 304.017C169.72 303.534 169.374 303.153 168.924 302.874C168.479 302.594 167.954 302.455 167.348 302.455C166.68 302.455 166.102 302.62 165.615 302.952C165.132 303.278 164.76 303.705 164.5 304.23C164.239 304.756 164.109 305.319 164.109 305.92V306.886C164.109 307.71 164.251 308.409 164.535 308.982C164.824 309.55 165.224 309.983 165.735 310.281C166.247 310.575 166.841 310.722 167.518 310.722C167.958 310.722 168.356 310.66 168.711 310.537C169.071 310.409 169.381 310.22 169.642 309.969C169.902 309.713 170.103 309.396 170.245 309.017L171.865 309.472C171.694 310.021 171.408 310.504 171.005 310.92C170.603 311.332 170.106 311.654 169.514 311.886C168.922 312.114 168.257 312.227 167.518 312.227ZM182.312 303.534L180.806 303.96C180.712 303.709 180.572 303.465 180.387 303.229C180.208 302.987 179.961 302.788 179.649 302.632C179.336 302.476 178.936 302.398 178.449 302.398C177.781 302.398 177.225 302.552 176.779 302.859C176.339 303.162 176.119 303.548 176.119 304.017C176.119 304.434 176.27 304.763 176.574 305.004C176.877 305.246 177.35 305.447 177.994 305.608L179.613 306.006C180.589 306.242 181.315 306.605 181.794 307.092C182.272 307.575 182.511 308.198 182.511 308.96C182.511 309.585 182.331 310.144 181.971 310.636C181.616 311.129 181.119 311.517 180.48 311.801C179.841 312.085 179.097 312.227 178.25 312.227C177.137 312.227 176.216 311.986 175.487 311.503C174.758 311.02 174.296 310.314 174.102 309.386L175.693 308.989C175.844 309.576 176.131 310.016 176.552 310.31C176.978 310.603 177.535 310.75 178.221 310.75C179.002 310.75 179.623 310.584 180.082 310.253C180.546 309.917 180.778 309.514 180.778 309.045C180.778 308.667 180.645 308.349 180.38 308.094C180.115 307.833 179.708 307.639 179.159 307.511L177.341 307.085C176.342 306.848 175.608 306.482 175.139 305.984C174.675 305.482 174.443 304.855 174.443 304.102C174.443 303.487 174.616 302.942 174.961 302.469C175.312 301.995 175.788 301.624 176.389 301.354C176.995 301.084 177.681 300.949 178.449 300.949C179.528 300.949 180.376 301.186 180.991 301.659C181.611 302.133 182.052 302.758 182.312 303.534ZM188.244 312.256C187.553 312.256 186.926 312.125 186.362 311.865C185.799 311.6 185.351 311.219 185.02 310.722C184.688 310.22 184.523 309.614 184.523 308.903C184.523 308.278 184.646 307.772 184.892 307.384C185.138 306.991 185.467 306.683 185.879 306.46C186.291 306.238 186.746 306.072 187.243 305.963C187.745 305.849 188.249 305.759 188.756 305.693C189.419 305.608 189.956 305.544 190.368 305.501C190.785 305.454 191.088 305.376 191.277 305.267C191.471 305.158 191.568 304.969 191.568 304.699V304.642C191.568 303.941 191.376 303.397 190.993 303.009C190.614 302.62 190.039 302.426 189.267 302.426C188.467 302.426 187.839 302.601 187.385 302.952C186.93 303.302 186.611 303.676 186.426 304.074L184.835 303.506C185.119 302.843 185.498 302.327 185.972 301.957C186.45 301.583 186.971 301.323 187.534 301.176C188.102 301.025 188.661 300.949 189.21 300.949C189.561 300.949 189.963 300.991 190.418 301.077C190.877 301.157 191.32 301.325 191.746 301.581C192.177 301.837 192.534 302.223 192.818 302.739C193.102 303.255 193.244 303.946 193.244 304.812V312H191.568V310.523H191.483C191.369 310.759 191.18 311.013 190.915 311.283C190.65 311.553 190.297 311.782 189.857 311.972C189.416 312.161 188.879 312.256 188.244 312.256ZM188.5 310.75C189.163 310.75 189.722 310.62 190.176 310.359C190.635 310.099 190.981 309.763 191.213 309.351C191.45 308.939 191.568 308.506 191.568 308.051V306.517C191.497 306.602 191.341 306.68 191.099 306.751C190.863 306.818 190.588 306.877 190.276 306.929C189.968 306.976 189.667 307.019 189.374 307.057C189.085 307.09 188.85 307.118 188.67 307.142C188.235 307.199 187.828 307.291 187.449 307.419C187.075 307.542 186.772 307.729 186.54 307.98C186.313 308.226 186.199 308.562 186.199 308.989C186.199 309.571 186.414 310.011 186.845 310.31C187.281 310.603 187.832 310.75 188.5 310.75ZM197.98 305.438V312H196.304V301.091H197.923V302.795H198.065C198.321 302.241 198.709 301.796 199.23 301.46C199.751 301.119 200.423 300.949 201.247 300.949C201.985 300.949 202.632 301.1 203.186 301.403C203.74 301.702 204.171 302.156 204.478 302.767C204.786 303.373 204.94 304.14 204.94 305.068V312H203.264V305.182C203.264 304.325 203.041 303.657 202.596 303.179C202.151 302.696 201.54 302.455 200.764 302.455C200.229 302.455 199.751 302.571 199.329 302.803C198.913 303.035 198.583 303.373 198.342 303.818C198.1 304.263 197.98 304.803 197.98 305.438ZM211.213 312.256C210.522 312.256 209.894 312.125 209.331 311.865C208.768 311.6 208.32 311.219 207.989 310.722C207.657 310.22 207.491 309.614 207.491 308.903C207.491 308.278 207.615 307.772 207.861 307.384C208.107 306.991 208.436 306.683 208.848 306.46C209.26 306.238 209.714 306.072 210.212 305.963C210.714 305.849 211.218 305.759 211.724 305.693C212.387 305.608 212.925 305.544 213.337 305.501C213.753 305.454 214.056 305.376 214.246 305.267C214.44 305.158 214.537 304.969 214.537 304.699V304.642C214.537 303.941 214.345 303.397 213.962 303.009C213.583 302.62 213.008 302.426 212.236 302.426C211.436 302.426 210.808 302.601 210.354 302.952C209.899 303.302 209.58 303.676 209.395 304.074L207.804 303.506C208.088 302.843 208.467 302.327 208.94 301.957C209.419 301.583 209.939 301.323 210.503 301.176C211.071 301.025 211.63 300.949 212.179 300.949C212.529 300.949 212.932 300.991 213.386 301.077C213.846 301.157 214.288 301.325 214.714 301.581C215.145 301.837 215.503 302.223 215.787 302.739C216.071 303.255 216.213 303.946 216.213 304.812V312H214.537V310.523H214.452C214.338 310.759 214.149 311.013 213.884 311.283C213.618 311.553 213.266 311.782 212.825 311.972C212.385 312.161 211.848 312.256 211.213 312.256ZM211.469 310.75C212.132 310.75 212.69 310.62 213.145 310.359C213.604 310.099 213.95 309.763 214.182 309.351C214.419 308.939 214.537 308.506 214.537 308.051V306.517C214.466 306.602 214.31 306.68 214.068 306.751C213.831 306.818 213.557 306.877 213.244 306.929C212.937 306.976 212.636 307.019 212.342 307.057C212.054 307.09 211.819 307.118 211.639 307.142C211.204 307.199 210.796 307.291 210.418 307.419C210.044 307.542 209.741 307.729 209.509 307.98C209.281 308.226 209.168 308.562 209.168 308.989C209.168 309.571 209.383 310.011 209.814 310.31C210.25 310.603 210.801 310.75 211.469 310.75ZM220.949 305.438V312H219.272V301.091H220.892V302.795H221.034C221.289 302.241 221.678 301.796 222.199 301.46C222.719 301.119 223.392 300.949 224.216 300.949C224.954 300.949 225.6 301.1 226.154 301.403C226.708 301.702 227.139 302.156 227.447 302.767C227.755 303.373 227.909 304.14 227.909 305.068V312H226.233V305.182C226.233 304.325 226.01 303.657 225.565 303.179C225.12 302.696 224.509 302.455 223.733 302.455C223.198 302.455 222.719 302.571 222.298 302.803C221.881 303.035 221.552 303.373 221.311 303.818C221.069 304.263 220.949 304.803 220.949 305.438ZM39.2102 321.455V336H37.5341V321.455H39.2102ZM45.4904 336.256C44.7991 336.256 44.1718 336.125 43.6083 335.865C43.0449 335.6 42.5974 335.219 42.266 334.722C41.9345 334.22 41.7688 333.614 41.7688 332.903C41.7688 332.278 41.8919 331.772 42.1381 331.384C42.3844 330.991 42.7134 330.683 43.1254 330.46C43.5373 330.238 43.9918 330.072 44.489 329.963C44.9909 329.849 45.4951 329.759 46.0018 329.693C46.6647 329.608 47.2021 329.544 47.614 329.501C48.0307 329.454 48.3337 329.376 48.5231 329.267C48.7172 329.158 48.8143 328.969 48.8143 328.699V328.642C48.8143 327.941 48.6225 327.397 48.239 327.009C47.8602 326.62 47.2849 326.426 46.5131 326.426C45.7129 326.426 45.0856 326.601 44.631 326.952C44.1765 327.302 43.8569 327.676 43.6722 328.074L42.0813 327.506C42.3654 326.843 42.7442 326.327 43.2177 325.957C43.6959 325.583 44.2167 325.323 44.7802 325.176C45.3484 325.025 45.9071 324.949 46.4563 324.949C46.8067 324.949 47.2092 324.991 47.6637 325.077C48.123 325.157 48.5657 325.325 48.9918 325.581C49.4227 325.837 49.7802 326.223 50.0643 326.739C50.3484 327.255 50.4904 327.946 50.4904 328.812V336H48.8143V334.523H48.729C48.6154 334.759 48.426 335.013 48.1609 335.283C47.8957 335.553 47.543 335.782 47.1026 335.972C46.6623 336.161 46.1249 336.256 45.4904 336.256ZM45.7461 334.75C46.409 334.75 46.9677 334.62 47.4222 334.359C47.8815 334.099 48.2272 333.763 48.4592 333.351C48.6959 332.939 48.8143 332.506 48.8143 332.051V330.517C48.7433 330.602 48.587 330.68 48.3455 330.751C48.1088 330.818 47.8342 330.877 47.5217 330.929C47.2139 330.976 46.9132 331.019 46.6197 331.057C46.3308 331.09 46.0965 331.118 45.9165 331.142C45.4809 331.199 45.0737 331.291 44.695 331.419C44.3209 331.542 44.0179 331.729 43.7859 331.98C43.5586 332.226 43.445 332.562 43.445 332.989C43.445 333.571 43.6604 334.011 44.0913 334.31C44.5269 334.603 45.0785 334.75 45.7461 334.75ZM54.2386 340.091C53.9545 340.091 53.7012 340.067 53.4787 340.02C53.2562 339.977 53.1023 339.935 53.017 339.892L53.4432 338.415C53.8504 338.519 54.2102 338.557 54.5227 338.528C54.8352 338.5 55.1122 338.36 55.3537 338.109C55.5999 337.863 55.8248 337.463 56.0284 336.909L56.3409 336.057L52.3068 325.091H54.125L57.1364 333.784H57.25L60.2614 325.091H62.0795L57.4489 337.591C57.2405 338.154 56.9825 338.621 56.6747 338.99C56.367 339.364 56.0095 339.641 55.6023 339.821C55.1998 340.001 54.7453 340.091 54.2386 340.091ZM67.1701 336.256C66.4788 336.256 65.8514 336.125 65.288 335.865C64.7246 335.6 64.2771 335.219 63.9457 334.722C63.6142 334.22 63.4485 333.614 63.4485 332.903C63.4485 332.278 63.5716 331.772 63.8178 331.384C64.064 330.991 64.3931 330.683 64.805 330.46C65.217 330.238 65.6715 330.072 66.1687 329.963C66.6706 329.849 67.1748 329.759 67.6815 329.693C68.3443 329.608 68.8817 329.544 69.2937 329.501C69.7103 329.454 70.0134 329.376 70.2028 329.267C70.3969 329.158 70.494 328.969 70.494 328.699V328.642C70.494 327.941 70.3022 327.397 69.9187 327.009C69.5399 326.62 68.9646 326.426 68.1928 326.426C67.3926 326.426 66.7653 326.601 66.3107 326.952C65.8562 327.302 65.5366 327.676 65.3519 328.074L63.761 327.506C64.0451 326.843 64.4239 326.327 64.8974 325.957C65.3756 325.583 65.8964 325.323 66.4599 325.176C67.0281 325.025 67.5868 324.949 68.136 324.949C68.4864 324.949 68.8888 324.991 69.3434 325.077C69.8027 325.157 70.2454 325.325 70.6715 325.581C71.1024 325.837 71.4599 326.223 71.744 326.739C72.0281 327.255 72.1701 327.946 72.1701 328.812V336H70.494V334.523H70.4087C70.2951 334.759 70.1057 335.013 69.8406 335.283C69.5754 335.553 69.2227 335.782 68.7823 335.972C68.342 336.161 67.8046 336.256 67.1701 336.256ZM67.4258 334.75C68.0887 334.75 68.6474 334.62 69.1019 334.359C69.5612 334.099 69.9068 333.763 70.1388 333.351C70.3756 332.939 70.494 332.506 70.494 332.051V330.517C70.4229 330.602 70.2667 330.68 70.0252 330.751C69.7885 330.818 69.5138 330.877 69.2013 330.929C68.8936 330.976 68.5929 331.019 68.2994 331.057C68.0105 331.09 67.7762 331.118 67.5962 331.142C67.1606 331.199 66.7534 331.291 66.3746 331.419C66.0006 331.542 65.6976 331.729 65.4656 331.98C65.2383 332.226 65.1246 332.562 65.1246 332.989C65.1246 333.571 65.3401 334.011 65.771 334.31C66.2066 334.603 66.7582 334.75 67.4258 334.75ZM76.9055 329.438V336H75.2294V325.091H76.8487V326.795H76.9908C77.2464 326.241 77.6347 325.796 78.1555 325.46C78.6764 325.119 79.3487 324.949 80.1726 324.949C80.9112 324.949 81.5575 325.1 82.1115 325.403C82.6655 325.702 83.0964 326.156 83.4041 326.767C83.7119 327.373 83.8658 328.14 83.8658 329.068V336H82.1896V329.182C82.1896 328.325 81.9671 327.657 81.522 327.179C81.0769 326.696 80.4661 326.455 79.6896 326.455C79.1546 326.455 78.6764 326.571 78.255 326.803C77.8383 327.035 77.5092 327.373 77.2678 327.818C77.0263 328.263 76.9055 328.803 76.9055 329.438ZM90.1388 336.256C89.4476 336.256 88.8202 336.125 88.2567 335.865C87.6933 335.6 87.2459 335.219 86.9144 334.722C86.583 334.22 86.4173 333.614 86.4173 332.903C86.4173 332.278 86.5404 331.772 86.7866 331.384C87.0328 330.991 87.3619 330.683 87.7738 330.46C88.1857 330.238 88.6403 330.072 89.1374 329.963C89.6393 329.849 90.1436 329.759 90.6502 329.693C91.3131 329.608 91.8505 329.544 92.2624 329.501C92.6791 329.454 92.9821 329.376 93.1715 329.267C93.3656 329.158 93.4627 328.969 93.4627 328.699V328.642C93.4627 327.941 93.271 327.397 92.8874 327.009C92.5086 326.62 91.9334 326.426 91.1616 326.426C90.3614 326.426 89.734 326.601 89.2795 326.952C88.8249 327.302 88.5053 327.676 88.3207 328.074L86.7298 327.506C87.0138 326.843 87.3926 326.327 87.8661 325.957C88.3443 325.583 88.8652 325.323 89.4286 325.176C89.9968 325.025 90.5555 324.949 91.1048 324.949C91.4551 324.949 91.8576 324.991 92.3121 325.077C92.7714 325.157 93.2141 325.325 93.6403 325.581C94.0711 325.837 94.4286 326.223 94.7127 326.739C94.9968 327.255 95.1388 327.946 95.1388 328.812V336H93.4627V334.523H93.3775C93.2638 334.759 93.0745 335.013 92.8093 335.283C92.5442 335.553 92.1914 335.782 91.7511 335.972C91.3107 336.161 90.7733 336.256 90.1388 336.256ZM90.3945 334.75C91.0574 334.75 91.6161 334.62 92.0707 334.359C92.5299 334.099 92.8756 333.763 93.1076 333.351C93.3443 332.939 93.4627 332.506 93.4627 332.051V330.517C93.3917 330.602 93.2354 330.68 92.994 330.751C92.7572 330.818 92.4826 330.877 92.1701 330.929C91.8623 330.976 91.5617 331.019 91.2681 331.057C90.9793 331.09 90.7449 331.118 90.565 331.142C90.1294 331.199 89.7222 331.291 89.3434 331.419C88.9693 331.542 88.6663 331.729 88.4343 331.98C88.207 332.226 88.0934 332.562 88.0934 332.989C88.0934 333.571 88.3088 334.011 88.7397 334.31C89.1753 334.603 89.7269 334.75 90.3945 334.75ZM99.8743 329.438V336H98.1982V325.091H99.8175V326.795H99.9595C100.215 326.241 100.603 325.796 101.124 325.46C101.645 325.119 102.317 324.949 103.141 324.949C103.88 324.949 104.526 325.1 105.08 325.403C105.634 325.702 106.065 326.156 106.373 326.767C106.681 327.373 106.835 328.14 106.835 329.068V336H105.158V329.182C105.158 328.325 104.936 327.657 104.491 327.179C104.046 326.696 103.435 326.455 102.658 326.455C102.123 326.455 101.645 326.571 101.224 326.803C100.807 327.035 100.478 327.373 100.237 327.818C99.995 328.263 99.8743 328.803 99.8743 329.438Z" fill="black"/>
</g>
<defs>
<clipPath id="clip0_142_162">
<rect width="440" height="956" fill="white"/>
</clipPath>
</defs>
</svg>
